<svg width="436" height="287" viewBox="0 0 436 287" fill="none" xmlns="http://www.w3.org/2000/svg">
<path d="M317.316 21.8109H31.2777C30.9872 21.8045 30.7107 21.6814 30.5075 21.4678C30.3043 21.2542 30.1905 20.9672 30.1905 20.6683C30.1905 20.3694 30.3043 20.0824 30.5075 19.8688C30.7107 19.6552 30.9872 19.532 31.2777 19.5256H317.316C317.607 19.532 317.883 19.6552 318.086 19.8688C318.289 20.0824 318.403 20.3694 318.403 20.6683C318.403 20.9672 318.289 21.2542 318.086 21.4678C317.883 21.6814 317.607 21.8045 317.316 21.8109Z" fill="#CACACA"/>
<path d="M50.2884 13.6915C53.883 13.6915 56.797 10.6265 56.797 6.84573C56.797 3.06494 53.883 0 50.2884 0C46.6937 0 43.7797 3.06494 43.7797 6.84573C43.7797 10.6265 46.6937 13.6915 50.2884 13.6915Z" fill="#3F3D56"/>
<path d="M72.7728 13.6915C76.3674 13.6915 79.2815 10.6265 79.2815 6.84573C79.2815 3.06494 76.3674 0 72.7728 0C69.1782 0 66.2641 3.06494 66.2641 6.84573C66.2641 10.6265 69.1782 13.6915 72.7728 13.6915Z" fill="#3F3D56"/>
<path d="M95.2573 13.6915C98.8519 13.6915 101.766 10.6265 101.766 6.84573C101.766 3.06494 98.8519 0 95.2573 0C91.6626 0 88.7486 3.06494 88.7486 6.84573C88.7486 10.6265 91.6626 13.6915 95.2573 13.6915Z" fill="#3F3D56"/>
<path d="M303.778 1.69678H287.807C287.49 1.70326 287.189 1.83721 286.967 2.06985C286.745 2.30248 286.621 2.61527 286.621 2.94104C286.621 3.26681 286.745 3.57959 286.967 3.81223C287.189 4.04486 287.49 4.1788 287.807 4.18529H303.778C304.095 4.1788 304.397 4.04486 304.618 3.81223C304.84 3.57959 304.964 3.26681 304.964 2.94104C304.964 2.61527 304.84 2.30248 304.618 2.06985C304.397 1.83721 304.095 1.70326 303.778 1.69678Z" fill="#3F3D56"/>
<path d="M303.778 6.36732H287.807C287.49 6.37381 287.189 6.50776 286.967 6.7404C286.745 6.97303 286.621 7.28581 286.621 7.61158C286.621 7.93736 286.745 8.25014 286.967 8.48277C287.189 8.71541 287.49 8.84935 287.807 8.85583H303.778C304.095 8.84935 304.397 8.71541 304.618 8.48277C304.84 8.25014 304.964 7.93736 304.964 7.61158C304.964 7.28581 304.84 6.97303 304.618 6.7404C304.397 6.50776 304.095 6.37381 303.778 6.36732Z" fill="#3F3D56"/>
<path d="M303.778 11.0317H287.807C287.49 11.0382 287.189 11.1722 286.967 11.4048C286.745 11.6374 286.621 11.9502 286.621 12.276C286.621 12.6018 286.745 12.9145 286.967 13.1472C287.189 13.3798 287.49 13.5138 287.807 13.5202H303.778C304.095 13.5138 304.397 13.3798 304.618 13.1472C304.84 12.9145 304.964 12.6018 304.964 12.276C304.964 11.9502 304.84 11.6374 304.618 11.4048C304.397 11.1722 304.095 11.0382 303.778 11.0317Z" fill="#3F3D56"/>
<path d="M109.938 229.079L110.33 83.6568C110.341 80.7134 111.486 77.8948 113.515 75.8193C115.543 73.7439 118.289 72.581 121.15 72.5858L227.895 72.8903C230.756 72.9018 233.496 74.0803 235.513 76.1674C237.53 78.2544 238.661 81.0795 238.656 84.0228L238.264 229.445C238.253 232.388 237.107 235.207 235.079 237.283C233.05 239.358 230.305 240.521 227.444 240.516L120.698 240.212C117.837 240.2 115.098 239.022 113.081 236.935C111.063 234.848 109.933 232.022 109.938 229.079Z" fill="#E6E6E6"/>
<path d="M118.244 185.179L118.496 91.6881C118.507 88.9316 119.579 86.2919 121.479 84.3481C123.379 82.4043 125.95 81.3153 128.63 81.3199L220.368 81.5815C223.048 81.5922 225.613 82.6959 227.503 84.6505C229.392 86.6051 230.451 89.2509 230.446 92.0075L230.098 221.414C230.087 224.17 229.014 226.81 227.115 228.754C225.215 230.697 222.643 231.787 219.964 231.782L163.133 231.62C151.199 231.572 139.771 226.656 131.355 217.949C122.94 209.243 118.225 197.458 118.244 185.179Z" fill="white"/>
<path d="M210.063 154.302H138.53C137.392 154.302 136.301 153.837 135.496 153.009C134.691 152.181 134.239 151.058 134.239 149.887C134.239 148.715 134.691 147.592 135.496 146.764C136.301 145.936 137.392 145.471 138.53 145.471H210.063C211.202 145.471 212.293 145.936 213.098 146.764C213.903 147.592 214.355 148.715 214.355 149.887C214.355 151.058 213.903 152.181 213.098 153.009C212.293 153.837 211.202 154.302 210.063 154.302Z" fill="#660708"/>
<path d="M154.268 130.086H138.53C137.392 130.086 136.301 129.62 135.496 128.792C134.691 127.964 134.239 126.841 134.239 125.67C134.239 124.499 134.691 123.375 135.496 122.547C136.301 121.719 137.392 121.254 138.53 121.254H154.268C155.406 121.254 156.498 121.719 157.303 122.547C158.107 123.375 158.56 124.499 158.56 125.67C158.56 126.841 158.107 127.964 157.303 128.792C156.498 129.62 155.406 130.086 154.268 130.086Z" fill="#660708"/>
<path d="M210.063 193.129H138.53C137.392 193.129 136.301 192.663 135.496 191.835C134.691 191.007 134.239 189.884 134.239 188.713C134.239 187.542 134.691 186.419 135.496 185.59C136.301 184.762 137.392 184.297 138.53 184.297H210.063C211.202 184.297 212.293 184.762 213.098 185.59C213.903 186.419 214.355 187.542 214.355 188.713C214.355 189.884 213.903 191.007 213.098 191.835C212.293 192.663 211.202 193.129 210.063 193.129Z" fill="#660708"/>
<path d="M210.063 173.716H138.53C137.392 173.716 136.301 173.25 135.496 172.422C134.691 171.594 134.239 170.471 134.239 169.3C134.239 168.129 134.691 167.005 135.496 166.177C136.301 165.349 137.392 164.884 138.53 164.884H210.063C211.202 164.884 212.293 165.349 213.098 166.177C213.903 167.005 214.355 168.129 214.355 169.3C214.355 170.471 213.903 171.594 213.098 172.422C212.293 173.25 211.202 173.716 210.063 173.716Z" fill="#660708"/>
<path d="M17.0777 287C26.5095 287 34.1555 279.133 34.1555 269.429C34.1555 259.725 26.5095 251.859 17.0777 251.859C7.64596 251.859 5.84126e-06 259.725 5.84126e-06 269.429C5.84126e-06 279.133 7.64596 287 17.0777 287Z" fill="#660708"/>
<path d="M14.748 278.574C14.4531 278.574 14.1622 278.503 13.8985 278.368C13.6347 278.232 13.4053 278.035 13.2284 277.792L8.56937 271.401C8.41936 271.195 8.31015 270.962 8.248 270.713C8.18584 270.464 8.17195 270.205 8.20712 269.951C8.24229 269.697 8.32584 269.452 8.45298 269.231C8.58011 269.01 8.74835 268.817 8.94807 268.663C9.14779 268.509 9.37507 268.396 9.61692 268.333C9.85878 268.269 10.1105 268.255 10.3576 268.292C10.6047 268.328 10.8424 268.414 11.0571 268.545C11.2718 268.676 11.4593 268.85 11.6088 269.055L14.6569 273.237L22.4856 261.155C22.7653 260.724 23.1998 260.425 23.6936 260.324C24.1874 260.222 24.7001 260.327 25.1191 260.614C25.5381 260.902 25.829 261.348 25.928 261.856C26.027 262.364 25.9259 262.892 25.6469 263.323L16.3288 277.704C16.1602 277.964 15.9335 278.178 15.6676 278.33C15.4018 278.481 15.1046 278.565 14.8008 278.573C14.7832 278.574 14.7656 278.574 14.748 278.574Z" fill="white"/>
<path d="M17.23 230.929H16.0005V234.724H17.23V230.929Z" fill="#2F2E41"/>
<path d="M17.23 223.683H16.0005V216.437H17.23V223.683ZM17.23 209.191H16.0005V201.945H17.23V209.191ZM17.23 194.699H16.0005V187.453H17.23V194.699ZM17.23 180.207H16.0005V172.961H17.23V180.207ZM17.23 165.714H16.0005V158.469H17.23V165.714Z" fill="#2F2E41"/>
<path d="M17.2302 151.223H16.0007V146.795H20.3039V148.06H17.2302V151.223Z" fill="#2F2E41"/>
<path d="M78.3375 148.06H71.0833V146.795H78.3375V148.06ZM63.829 148.06H56.5748V146.795H63.829V148.06ZM49.3206 148.06H42.0664V146.795H49.3206V148.06ZM34.8122 148.06H27.558V146.795H34.8122V148.06Z" fill="#2F2E41"/>
<path d="M89.2805 146.795H85.592V148.06H89.2805V146.795Z" fill="#2F2E41"/>
<path d="M412.706 192.759H411.476V196.554H412.706V192.759Z" fill="#2F2E41"/>
<path d="M412.706 184.452H411.476V176.145H412.706V184.452ZM412.706 167.837H411.476V159.53H412.706V167.837Z" fill="#2F2E41"/>
<path d="M412.706 151.223H411.476V148.06H408.402V146.795H412.706V151.223Z" fill="#2F2E41"/>
<path d="M400.76 148.06H393.118V146.795H400.76V148.06ZM385.475 148.06H377.833V146.795H385.475V148.06ZM370.19 148.06H362.548V146.795H370.19V148.06ZM354.906 148.06H347.263V146.795H354.906V148.06ZM339.621 148.06H331.978V146.795H339.621L339.621 148.06ZM324.336 148.06H316.694V146.795H324.336V148.06ZM309.051 148.06H301.409V146.795H309.051V148.06ZM293.767 148.06H286.124V146.795H293.767V148.06ZM278.482 148.06H270.839V146.795H278.482V148.06Z" fill="#2F2E41"/>
<path d="M263.197 146.795H259.508V148.06H263.197V146.795Z" fill="#2F2E41"/>
<path d="M412.477 242.726C421.909 242.726 429.555 234.859 429.555 225.155C429.555 215.451 421.909 207.584 412.477 207.584C403.045 207.584 395.4 215.451 395.4 225.155C395.4 234.859 403.045 242.726 412.477 242.726Z" fill="#660708"/>
<path d="M415.837 225.155L419.196 221.699C419.64 221.24 419.889 220.619 419.889 219.971C419.888 219.324 419.638 218.703 419.193 218.246C418.748 217.788 418.145 217.531 417.516 217.53C416.886 217.529 416.283 217.785 415.837 218.242L412.477 221.698L409.118 218.242C408.672 217.785 408.068 217.529 407.439 217.53C406.81 217.531 406.207 217.788 405.762 218.246C405.317 218.703 405.067 219.324 405.066 219.971C405.065 220.619 405.314 221.24 405.758 221.699L409.118 225.155L405.758 228.612C405.536 228.838 405.36 229.108 405.24 229.405C405.119 229.702 405.057 230.02 405.057 230.342C405.056 230.663 405.117 230.982 405.237 231.279C405.356 231.576 405.531 231.847 405.752 232.074C405.974 232.301 406.236 232.482 406.525 232.605C406.814 232.727 407.124 232.79 407.436 232.79C407.749 232.789 408.058 232.725 408.347 232.601C408.635 232.478 408.897 232.296 409.118 232.068L412.477 228.612L415.837 232.068C416.057 232.296 416.319 232.478 416.608 232.601C416.896 232.725 417.206 232.789 417.518 232.79C417.831 232.79 418.141 232.727 418.43 232.605C418.718 232.482 418.981 232.301 419.202 232.074C419.423 231.847 419.598 231.576 419.718 231.279C419.837 230.982 419.898 230.663 419.898 230.342C419.897 230.02 419.835 229.702 419.715 229.405C419.594 229.108 419.418 228.838 419.196 228.612L415.837 225.155Z" fill="white"/>
<path d="M364.561 120.023L368.25 142.548L403.291 123.185L364.561 120.023Z" fill="#2F2E41"/>
<path d="M360.375 260.083L353.034 259.775L350.696 230.498L361.53 230.953L360.375 260.083Z" fill="#FFB6B6"/>
<path d="M360.873 176.314C374.189 172.137 376.921 154.28 384.234 150.382C384.215 140.951 384.584 111.704 375.433 112.261C370.337 112.571 341.944 166.042 340.727 174.901C338.469 191.337 350.525 233.285 349.126 236.167L363.127 237.079L363.208 235.945C363.43 232.87 365.662 223.597 363.116 221.969L362.152 221.353C362.16 218.155 362.838 212.708 360.035 211.327C360 211.309 359.968 211.284 359.942 211.253C359.917 211.223 359.898 211.186 359.887 211.147C359.875 211.108 359.872 211.067 359.877 211.027C359.883 210.987 359.896 210.948 359.917 210.914L360.873 176.314Z" fill="#2F2E41"/>
<path d="M364.157 266.633L359.248 266.931L358.099 262.216L356.128 267.12L343.109 267.91C342.485 267.948 341.865 267.78 341.341 267.43C340.816 267.08 340.414 266.566 340.193 265.965C339.973 265.363 339.944 264.704 340.113 264.085C340.282 263.466 340.639 262.918 341.131 262.522L351.105 254.504L350.829 249.683L361.803 249.691L364.157 266.633Z" fill="#2F2E41"/>
<path d="M416.326 207.318L423.649 207.928L429.421 179.16L418.614 178.259L416.326 207.318Z" fill="#FFB6B6"/>
<path d="M413.455 134.41C406.888 146.284 395.139 149.119 382.956 151.196C377.659 143.499 369.585 132.768 377.356 127.766C381.684 124.98 419.199 102.444 424.99 109.118C440.11 126.543 429.324 182.614 430.253 181.374L418.276 181.195L417.571 180.32C416.632 179.155 416.022 177.748 415.805 176.252C415.589 174.755 415.775 173.226 416.343 171.831L416.781 170.753C415.896 169.479 415.379 167.972 415.292 166.408C415.204 164.844 415.55 163.286 416.288 161.916L416.44 161.634L413.455 134.41Z" fill="#2F2E41"/>
<path d="M416.134 196.825L427.028 198.187L426.186 202.937L435.14 212.141C435.582 212.596 435.872 213.184 435.966 213.819C436.061 214.455 435.955 215.105 435.665 215.675C435.375 216.245 434.915 216.704 434.353 216.986C433.792 217.268 433.157 217.358 432.542 217.242L419.712 214.834L418.334 209.719L416.637 214.256L411.799 213.348L416.134 196.825Z" fill="#2F2E41"/>
<path d="M387.669 39.6962H382.643C381.616 39.6962 380.605 39.9523 379.696 40.4424C378.787 40.9325 378.006 41.6421 377.422 42.5105L373.783 47.9186L364.716 49.6153C361.566 51.6166 359.193 54.6853 358.006 58.2929C356.818 61.9004 356.891 65.821 358.211 69.3795C364.627 86.6453 367.724 119.007 361.488 133.305C361.488 133.305 399.321 136.831 408.824 125.082C418.326 113.334 410.668 56.141 410.668 56.141L396.529 47.9186L392.89 42.5106C392.305 41.6423 391.525 40.9326 390.616 40.4424C389.707 39.9523 388.695 39.6962 387.669 39.6962Z" fill="#660708"/>
<path d="M411.116 140.751C411.541 140.29 411.863 139.739 412.059 139.136C412.255 138.533 412.32 137.893 412.25 137.262C412.179 136.63 411.975 136.022 411.651 135.481C411.328 134.939 410.893 134.477 410.377 134.127L418.66 106.108L409.438 100.415L404.321 135.602C403.807 136.533 403.643 137.625 403.86 138.672C404.076 139.719 404.658 140.647 405.496 141.282C406.333 141.917 407.368 142.213 408.404 142.115C409.44 142.017 410.405 141.532 411.116 140.751H411.116Z" fill="#FFB6B6"/>
<path d="M419.274 109.27L408.209 104.843L408.681 99.1584L395.534 69.5476C394.884 68.0839 394.555 66.491 394.571 64.8819C394.587 63.2729 394.947 61.6871 395.625 60.2373C396.303 58.7874 397.284 57.509 398.496 56.4928C399.709 55.4765 401.124 54.7475 402.642 54.3573C405.383 53.6556 408.283 54.1015 410.705 55.5971C413.127 57.0927 414.874 59.5158 415.562 62.3348L424.203 97.908C425.203 103.429 424.072 107.553 419.274 109.27Z" fill="#660708"/>
<path d="M403.967 22.4609C403.967 17.3362 401.988 12.4214 398.466 8.79773C394.944 5.17404 390.167 3.13828 385.186 3.13828C380.206 3.13828 375.429 5.17404 371.907 8.79773C368.385 12.4214 366.406 17.3362 366.406 22.4609V34.573C366.407 35.2605 366.673 35.9196 367.145 36.4057C367.618 36.8918 368.258 37.1653 368.926 37.1663H369.387C369.92 35.5969 370.244 33.9609 370.353 32.3024C371.322 33.7974 372.061 35.4382 372.541 37.1663H401.44C402.109 37.1656 402.751 36.8923 403.224 36.4063C403.698 35.9203 403.965 35.2612 403.967 34.573C405.485 31.3853 406.168 27.7295 403.967 22.4609Z" fill="#2F2E41"/>
<path d="M384.43 37.0469C392.034 37.0469 398.198 30.7045 398.198 22.8808C398.198 15.0571 392.034 8.71474 384.43 8.71474C376.825 8.71474 370.661 15.0571 370.661 22.8808C370.661 30.7045 376.825 37.0469 384.43 37.0469Z" fill="#FFB8B8"/>
<path d="M370.283 22.8263C370.152 22.67 370.054 22.4865 369.998 22.2882C369.941 22.0898 369.927 21.8813 369.955 21.6767L371.586 9.99139C371.618 9.75363 371.708 9.5279 371.846 9.33465C371.985 9.1414 372.168 8.98672 372.379 8.8846C380.704 4.87594 389.146 4.87086 397.471 8.86942C397.692 8.97713 397.882 9.14197 398.022 9.34782C398.163 9.55367 398.249 9.79349 398.272 10.0438L399.976 19.2143C399.994 19.4143 399.972 19.6161 399.91 19.8068C399.848 19.9974 399.749 20.1728 399.618 20.3216C399.353 20.6213 398.982 27.2109 398.588 27.2109C398.92 23.2832 398.116 21.404 395.204 23.3236C394.938 23.3229 394.677 23.2444 394.452 23.0971C394.227 22.9498 394.048 22.7399 393.934 22.4917L392.743 19.8647C392.666 19.6946 392.537 19.5549 392.376 19.4667C392.215 19.3785 392.03 19.3466 391.85 19.3758C391.67 19.4049 391.504 19.4936 391.377 19.6285C391.25 19.7633 391.169 19.9369 391.146 20.1232L390.911 22.0602C390.868 22.4088 390.703 22.7295 390.447 22.962C390.191 23.1946 389.862 23.3231 389.52 23.3236C384.655 25.8075 378.274 25.139 371.342 23.3236C371.141 23.3236 370.943 23.2792 370.76 23.1934C370.577 23.1076 370.415 22.9824 370.283 22.8263Z" fill="#2F2E41"/>
<path d="M395.409 101.643H372.842C372.07 101.642 371.329 101.325 370.782 100.763C370.236 100.201 369.929 99.4388 369.928 98.6438V73.687C369.929 72.892 370.236 72.1297 370.782 71.5675C371.329 71.0054 372.07 70.6891 372.842 70.6883H395.409C396.182 70.6891 396.922 71.0054 397.469 71.5675C398.015 72.1297 398.323 72.892 398.323 73.687V98.6438C398.323 99.4388 398.015 100.201 397.469 100.763C396.922 101.325 396.182 101.642 395.409 101.643Z" fill="#3F3D56"/>
<path d="M373.477 76.0792C374.411 76.0792 375.167 75.3006 375.167 74.3402C375.167 73.3797 374.411 72.6012 373.477 72.6012C372.544 72.6012 371.787 73.3797 371.787 74.3402C371.787 75.3006 372.544 76.0792 373.477 76.0792Z" fill="#E6E6E6"/>
<path d="M373.477 75.3836C374.037 75.3836 374.491 74.9164 374.491 74.3402C374.491 73.7639 374.037 73.2968 373.477 73.2968C372.917 73.2968 372.463 73.7639 372.463 74.3402C372.463 74.9164 372.917 75.3836 373.477 75.3836Z" fill="#3F3D56"/>
<path d="M399.412 84.8222C398.911 85.3953 398.293 85.8484 397.603 86.1494C396.913 86.4504 396.167 86.5921 395.418 86.5644C394.669 86.5368 393.935 86.3405 393.268 85.9894C392.6 85.6383 392.016 85.1409 391.556 84.5323L371.324 90.2955L368.25 83.3381L392.714 76.8562C393.759 76.1284 395.027 75.8202 396.278 75.9901C397.529 76.1601 398.676 76.7963 399.502 77.7782C400.328 78.7601 400.775 80.0195 400.758 81.3178C400.742 82.616 400.263 83.8629 399.412 84.8222H399.412Z" fill="#FFB8B8"/>
<path d="M373.727 90.4745L368.05 92.3389C361.876 99.0501 359.692 94.1803 352.416 93.6763C351.047 93.5816 349.975 92.4254 349.232 90.2404C348.219 87.1678 348.32 83.822 349.517 80.8201L359.623 54.7591L363.853 51.1931L369.76 58.4755L365.225 78.4965L372.67 82.4005L373.727 90.4745Z" fill="#660708"/>
</svg>
