<svg width="287" height="74" viewBox="0 0 287 74" fill="none" xmlns="http://www.w3.org/2000/svg">
<g filter="url(#filter0_i_2_52)">
<path d="M62.6055 0.609375V39H53.377V0.609375H62.6055ZM213.637 0.609375L219.912 13.3711L226.188 0.609375H236.734L226.029 19.6465L237.024 39H226.372L219.912 26.001L213.452 39H202.773L213.795 19.6465L203.063 0.609375H213.637Z" fill="#A4161A"/>
<path d="M77.4238 16.5615V39H68.5381V10.4707H76.8701L77.4238 16.5615ZM76.3691 23.7598L74.2861 23.8125C74.2861 21.6328 74.5498 19.6904 75.0771 17.9854C75.6045 16.2627 76.3516 14.8037 77.3184 13.6084C78.2852 12.4131 79.4365 11.5078 80.7725 10.8926C82.126 10.2598 83.6289 9.94336 85.2812 9.94336C86.5996 9.94336 87.8037 10.1367 88.8936 10.5234C90.001 10.9102 90.9502 11.5342 91.7412 12.3955C92.5498 13.2568 93.165 14.3994 93.5869 15.8232C94.0264 17.2295 94.2461 18.9697 94.2461 21.0439V39H85.3076V21.0176C85.3076 19.875 85.1494 19.0049 84.833 18.4072C84.5166 17.792 84.0596 17.3701 83.4619 17.1416C82.8643 16.9131 82.1348 16.7988 81.2734 16.7988C80.3594 16.7988 79.5859 16.9746 78.9531 17.3262C78.3203 17.6777 77.8105 18.1699 77.4238 18.8027C77.0547 19.418 76.7822 20.1475 76.6064 20.9912C76.4482 21.835 76.3691 22.7578 76.3691 23.7598ZM109.46 32.9092L115.076 10.4707H124.437L115.103 39H109.565L109.46 32.9092ZM106.138 10.4707L111.675 32.9092L111.622 39H106.059L96.751 10.4707H106.138ZM140.521 39.5273C138.2 39.5273 136.126 39.167 134.298 38.4463C132.47 37.708 130.923 36.6973 129.657 35.4141C128.409 34.1309 127.451 32.6543 126.783 30.9844C126.133 29.3145 125.808 27.5479 125.808 25.6846V24.6826C125.808 22.5908 126.098 20.6572 126.678 18.8818C127.258 17.0889 128.119 15.5244 129.262 14.1885C130.404 12.8525 131.837 11.8154 133.56 11.0771C135.282 10.3213 137.286 9.94336 139.571 9.94336C141.593 9.94336 143.403 10.2686 145.003 10.9189C146.603 11.5693 147.956 12.501 149.063 13.7139C150.188 14.9268 151.041 16.3945 151.621 18.1172C152.219 19.8398 152.518 21.7734 152.518 23.918V27.5303H129.209V21.9668H143.843V21.2812C143.86 20.332 143.693 19.5234 143.342 18.8555C143.008 18.1875 142.516 17.6777 141.865 17.3262C141.215 16.9746 140.424 16.7988 139.492 16.7988C138.525 16.7988 137.726 17.0098 137.093 17.4316C136.478 17.8535 135.994 18.4336 135.643 19.1719C135.309 19.8926 135.071 20.7275 134.931 21.6768C134.79 22.626 134.72 23.6279 134.72 24.6826V25.6846C134.72 26.7393 134.86 27.6973 135.142 28.5586C135.44 29.4199 135.862 30.1582 136.407 30.7734C136.97 31.3711 137.638 31.8369 138.411 32.1709C139.202 32.5049 140.099 32.6719 141.101 32.6719C142.313 32.6719 143.509 32.4434 144.687 31.9863C145.864 31.5293 146.875 30.7734 147.719 29.7188L151.753 34.5176C151.173 35.3438 150.347 36.1436 149.274 36.917C148.22 37.6904 146.954 38.3232 145.478 38.8154C144.001 39.29 142.349 39.5273 140.521 39.5273ZM164.857 16.5615V39H155.972V10.4707H164.304L164.857 16.5615ZM163.803 23.7598L161.72 23.8125C161.72 21.6328 161.983 19.6904 162.511 17.9854C163.038 16.2627 163.785 14.8037 164.752 13.6084C165.719 12.4131 166.87 11.5078 168.206 10.8926C169.56 10.2598 171.062 9.94336 172.715 9.94336C174.033 9.94336 175.237 10.1367 176.327 10.5234C177.435 10.9102 178.384 11.5342 179.175 12.3955C179.983 13.2568 180.599 14.3994 181.021 15.8232C181.46 17.2295 181.68 18.9697 181.68 21.0439V39H172.741V21.0176C172.741 19.875 172.583 19.0049 172.267 18.4072C171.95 17.792 171.493 17.3701 170.896 17.1416C170.298 16.9131 169.568 16.7988 168.707 16.7988C167.793 16.7988 167.02 16.9746 166.387 17.3262C165.754 17.6777 165.244 18.1699 164.857 18.8027C164.488 19.418 164.216 20.1475 164.04 20.9912C163.882 21.835 163.803 22.7578 163.803 23.7598ZM201.64 10.4707V16.6406H184.448V10.4707H201.64ZM188.061 3.37793H196.946V29.6924C196.946 30.4482 197.034 31.0371 197.21 31.459C197.386 31.8633 197.685 32.1533 198.106 32.3291C198.546 32.4873 199.126 32.5664 199.847 32.5664C200.356 32.5664 200.778 32.5576 201.112 32.54C201.446 32.5049 201.763 32.4609 202.062 32.4082V38.7627C201.306 39.0088 200.515 39.1934 199.688 39.3164C198.862 39.457 197.983 39.5273 197.052 39.5273C195.153 39.5273 193.527 39.2285 192.174 38.6309C190.838 38.0332 189.818 37.0928 189.115 35.8096C188.412 34.5264 188.061 32.8564 188.061 30.7998V3.37793Z" fill="#F5F3F4"/>
<path d="M15.0742 60.1289V60.8203C15.0742 62.125 14.8906 63.2969 14.5234 64.3359C14.1641 65.3672 13.6523 66.25 12.9883 66.9844C12.3242 67.7109 11.5391 68.2695 10.6328 68.6602C9.72656 69.043 8.72656 69.2344 7.63281 69.2344C6.53125 69.2344 5.52344 69.043 4.60938 68.6602C3.70312 68.2695 2.91406 67.7109 2.24219 66.9844C1.57812 66.25 1.0625 65.3672 0.695312 64.3359C0.335938 63.2969 0.15625 62.125 0.15625 60.8203V60.1289C0.15625 58.8242 0.335938 57.6523 0.695312 56.6133C1.0625 55.5742 1.57422 54.6914 2.23047 53.9648C2.89453 53.2305 3.67969 52.6719 4.58594 52.2891C5.5 51.8984 6.50781 51.7031 7.60938 51.7031C8.70312 51.7031 9.70312 51.8984 10.6094 52.2891C11.5234 52.6719 12.3125 53.2305 12.9766 53.9648C13.6406 54.6914 14.1562 55.5742 14.5234 56.6133C14.8906 57.6523 15.0742 58.8242 15.0742 60.1289ZM10.9023 60.8203V60.1055C10.9023 59.2617 10.8281 58.5195 10.6797 57.8789C10.5391 57.2305 10.3281 56.6875 10.0469 56.25C9.76562 55.8125 9.41797 55.4844 9.00391 55.2656C8.59766 55.0391 8.13281 54.9258 7.60938 54.9258C7.0625 54.9258 6.58594 55.0391 6.17969 55.2656C5.77344 55.4844 5.43359 55.8125 5.16016 56.25C4.88672 56.6875 4.67969 57.2305 4.53906 57.8789C4.40625 58.5195 4.33984 59.2617 4.33984 60.1055V60.8203C4.33984 61.6562 4.40625 62.3984 4.53906 63.0469C4.67969 63.6875 4.88672 64.2305 5.16016 64.6758C5.44141 65.1211 5.78516 65.457 6.19141 65.6836C6.60547 65.9102 7.08594 66.0234 7.63281 66.0234C8.15625 66.0234 8.62109 65.9102 9.02734 65.6836C9.43359 65.457 9.77344 65.1211 10.0469 64.6758C10.3281 64.2305 10.5391 63.6875 10.6797 63.0469C10.8281 62.3984 10.9023 61.6562 10.9023 60.8203ZM21.0039 59.4609V69H17.0547V56.3203H20.7461L21.0039 59.4609ZM24.7539 56.2266L24.6836 59.8945C24.5273 59.8789 24.3164 59.8594 24.0508 59.8359C23.7852 59.8125 23.5625 59.8008 23.3828 59.8008C22.9219 59.8008 22.5234 59.8555 22.1875 59.9648C21.8594 60.0664 21.5859 60.2227 21.3672 60.4336C21.1562 60.6367 21 60.8945 20.8984 61.207C20.8047 61.5195 20.7617 61.8828 20.7695 62.2969L20.0547 61.8281C20.0547 60.9766 20.1367 60.2031 20.3008 59.5078C20.4727 58.8047 20.7148 58.1992 21.0273 57.6914C21.3398 57.1758 21.7188 56.7812 22.1641 56.5078C22.6094 56.2266 23.1094 56.0859 23.6641 56.0859C23.8594 56.0859 24.0508 56.0977 24.2383 56.1211C24.4336 56.1445 24.6055 56.1797 24.7539 56.2266ZM33.8477 56.3203H37.4336V68.5078C37.4336 69.6797 37.1641 70.6719 36.625 71.4844C36.0859 72.3047 35.332 72.9258 34.3633 73.3477C33.4023 73.7773 32.2773 73.9922 30.9883 73.9922C30.418 73.9922 29.8359 73.918 29.2422 73.7695C28.6484 73.6289 28.0938 73.418 27.5781 73.1367C27.0625 72.8555 26.6289 72.5078 26.2773 72.0938L27.9297 69.7734C28.25 70.1328 28.6523 70.4375 29.1367 70.6875C29.6211 70.9453 30.1914 71.0742 30.8477 71.0742C31.418 71.0742 31.8945 70.9727 32.2773 70.7695C32.668 70.5664 32.9648 70.2695 33.168 69.8789C33.3711 69.4961 33.4727 69.0312 33.4727 68.4844V59.3203L33.8477 56.3203ZM25.4219 62.8125V62.5664C25.4219 61.6055 25.5391 60.7305 25.7734 59.9414C26.0156 59.1445 26.3594 58.4609 26.8047 57.8906C27.2578 57.3125 27.8047 56.8672 28.4453 56.5547C29.0859 56.2422 29.8086 56.0859 30.6133 56.0859C31.4805 56.0859 32.1914 56.2539 32.7461 56.5898C33.3086 56.918 33.7578 57.3789 34.0938 57.9727C34.4375 58.5664 34.7031 59.2617 34.8906 60.0586C35.0859 60.8477 35.25 61.6992 35.3828 62.6133V62.9062C35.25 63.7656 35.0664 64.5781 34.832 65.3438C34.6055 66.1016 34.3086 66.7734 33.9414 67.3594C33.5742 67.9453 33.1133 68.4062 32.5586 68.7422C32.0117 69.0703 31.3555 69.2344 30.5898 69.2344C29.793 69.2344 29.0742 69.0742 28.4336 68.7539C27.8008 68.4336 27.2578 67.9844 26.8047 67.4062C26.3594 66.8281 26.0156 66.1484 25.7734 65.3672C25.5391 64.5859 25.4219 63.7344 25.4219 62.8125ZM29.3711 62.5664V62.8125C29.3711 63.2891 29.4141 63.7305 29.5 64.1367C29.5938 64.543 29.7344 64.9023 29.9219 65.2148C30.1094 65.5195 30.3398 65.7578 30.6133 65.9297C30.8945 66.1016 31.2227 66.1875 31.5977 66.1875C32.168 66.1875 32.6289 66.0664 32.9805 65.8242C33.332 65.582 33.5859 65.2383 33.7422 64.793C33.8984 64.3477 33.9648 63.8242 33.9414 63.2227V62.2969C33.957 61.7812 33.9219 61.3281 33.8359 60.9375C33.75 60.5391 33.6133 60.207 33.4258 59.9414C33.2461 59.6758 33.0039 59.4766 32.6992 59.3438C32.4023 59.2031 32.043 59.1328 31.6211 59.1328C31.2539 59.1328 30.9297 59.2188 30.6484 59.3906C30.3672 59.5625 30.1328 59.8047 29.9453 60.1172C29.7578 60.4219 29.6133 60.7852 29.5117 61.207C29.418 61.6211 29.3711 62.0742 29.3711 62.5664ZM46.293 65.8125V60.5859C46.293 60.2266 46.2422 59.918 46.1406 59.6602C46.0391 59.4023 45.8789 59.2031 45.6602 59.0625C45.4414 58.9141 45.1484 58.8398 44.7812 58.8398C44.4844 58.8398 44.2305 58.8906 44.0195 58.9922C43.8086 59.0938 43.6484 59.2461 43.5391 59.4492C43.4297 59.6523 43.375 59.9102 43.375 60.2227H39.4258C39.4258 59.6367 39.5547 59.0938 39.8125 58.5938C40.0781 58.0859 40.4531 57.6445 40.9375 57.2695C41.4297 56.8945 42.0156 56.6055 42.6953 56.4023C43.3828 56.1914 44.1484 56.0859 44.9922 56.0859C46 56.0859 46.8984 56.2539 47.6875 56.5898C48.4844 56.9258 49.1133 57.4297 49.5742 58.1016C50.0352 58.7656 50.2656 59.6016 50.2656 60.6094V65.8008C50.2656 66.6289 50.3125 67.2578 50.4062 67.6875C50.5 68.1094 50.6328 68.4805 50.8047 68.8008V69H46.8438C46.6562 68.6094 46.5156 68.1328 46.4219 67.5703C46.3359 67 46.293 66.4141 46.293 65.8125ZM46.7734 61.2539L46.7969 63.3633H45.0508C44.6836 63.3633 44.3711 63.4141 44.1133 63.5156C43.8633 63.6172 43.6602 63.7578 43.5039 63.9375C43.3555 64.1094 43.2461 64.3047 43.1758 64.5234C43.1133 64.7422 43.082 64.9727 43.082 65.2148C43.082 65.4492 43.1367 65.6602 43.2461 65.8477C43.3633 66.0273 43.5195 66.168 43.7148 66.2695C43.9102 66.3711 44.1289 66.4219 44.3711 66.4219C44.8086 66.4219 45.1797 66.3398 45.4844 66.1758C45.7969 66.0039 46.0352 65.7969 46.1992 65.5547C46.3633 65.3125 46.4453 65.0859 46.4453 64.875L47.3125 66.4922C47.1562 66.8047 46.9766 67.1211 46.7734 67.4414C46.5781 67.7617 46.332 68.0586 46.0352 68.332C45.7461 68.5977 45.3906 68.8164 44.9688 68.9883C44.5469 69.1523 44.0352 69.2344 43.4336 69.2344C42.6523 69.2344 41.9336 69.0742 41.2773 68.7539C40.6289 68.4336 40.1094 67.9883 39.7188 67.418C39.3281 66.8398 39.1328 66.1758 39.1328 65.4258C39.1328 64.7695 39.25 64.1836 39.4844 63.668C39.7266 63.1523 40.0898 62.7148 40.5742 62.3555C41.0586 61.9961 41.6758 61.7227 42.4258 61.5352C43.1758 61.3477 44.0586 61.2539 45.0742 61.2539H46.7734ZM56.3359 59.0273V69H52.3867V56.3203H56.0898L56.3359 59.0273ZM55.8672 62.2266L54.9414 62.25C54.9414 61.2812 55.0586 60.418 55.293 59.6602C55.5273 58.8945 55.8594 58.2461 56.2891 57.7148C56.7188 57.1836 57.2305 56.7812 57.8242 56.5078C58.4258 56.2266 59.0938 56.0859 59.8281 56.0859C60.4141 56.0859 60.9492 56.1719 61.4336 56.3438C61.9258 56.5156 62.3477 56.793 62.6992 57.1758C63.0586 57.5586 63.332 58.0664 63.5195 58.6992C63.7148 59.3242 63.8125 60.0977 63.8125 61.0195V69H59.8398V61.0078C59.8398 60.5 59.7695 60.1133 59.6289 59.8477C59.4883 59.5742 59.2852 59.3867 59.0195 59.2852C58.7539 59.1836 58.4297 59.1328 58.0469 59.1328C57.6406 59.1328 57.2969 59.2109 57.0156 59.3672C56.7344 59.5234 56.5078 59.7422 56.3359 60.0234C56.1719 60.2969 56.0508 60.6211 55.9727 60.9961C55.9023 61.3711 55.8672 61.7812 55.8672 62.2266ZM70.1758 56.3203V69H66.2148V56.3203H70.1758ZM65.9805 53.0508C65.9805 52.4883 66.1836 52.0273 66.5898 51.668C66.9961 51.3086 67.5234 51.1289 68.1719 51.1289C68.8203 51.1289 69.3477 51.3086 69.7539 51.668C70.1602 52.0273 70.3633 52.4883 70.3633 53.0508C70.3633 53.6133 70.1602 54.0742 69.7539 54.4336C69.3477 54.793 68.8203 54.9727 68.1719 54.9727C67.5234 54.9727 66.9961 54.793 66.5898 54.4336C66.1836 54.0742 65.9805 53.6133 65.9805 53.0508ZM83.043 65.9531V69H73.2227V65.9531H83.043ZM82.9258 58.4531L74.9922 69H72.2852V66.7969L80.207 56.3203H82.9258V58.4531ZM81.625 56.3203V59.3672H72.5195V56.3203H81.625ZM91.5742 65.8125V60.5859C91.5742 60.2266 91.5234 59.918 91.4219 59.6602C91.3203 59.4023 91.1602 59.2031 90.9414 59.0625C90.7227 58.9141 90.4297 58.8398 90.0625 58.8398C89.7656 58.8398 89.5117 58.8906 89.3008 58.9922C89.0898 59.0938 88.9297 59.2461 88.8203 59.4492C88.7109 59.6523 88.6562 59.9102 88.6562 60.2227H84.707C84.707 59.6367 84.8359 59.0938 85.0938 58.5938C85.3594 58.0859 85.7344 57.6445 86.2188 57.2695C86.7109 56.8945 87.2969 56.6055 87.9766 56.4023C88.6641 56.1914 89.4297 56.0859 90.2734 56.0859C91.2812 56.0859 92.1797 56.2539 92.9688 56.5898C93.7656 56.9258 94.3945 57.4297 94.8555 58.1016C95.3164 58.7656 95.5469 59.6016 95.5469 60.6094V65.8008C95.5469 66.6289 95.5938 67.2578 95.6875 67.6875C95.7812 68.1094 95.9141 68.4805 96.0859 68.8008V69H92.125C91.9375 68.6094 91.7969 68.1328 91.7031 67.5703C91.6172 67 91.5742 66.4141 91.5742 65.8125ZM92.0547 61.2539L92.0781 63.3633H90.332C89.9648 63.3633 89.6523 63.4141 89.3945 63.5156C89.1445 63.6172 88.9414 63.7578 88.7852 63.9375C88.6367 64.1094 88.5273 64.3047 88.457 64.5234C88.3945 64.7422 88.3633 64.9727 88.3633 65.2148C88.3633 65.4492 88.418 65.6602 88.5273 65.8477C88.6445 66.0273 88.8008 66.168 88.9961 66.2695C89.1914 66.3711 89.4102 66.4219 89.6523 66.4219C90.0898 66.4219 90.4609 66.3398 90.7656 66.1758C91.0781 66.0039 91.3164 65.7969 91.4805 65.5547C91.6445 65.3125 91.7266 65.0859 91.7266 64.875L92.5938 66.4922C92.4375 66.8047 92.2578 67.1211 92.0547 67.4414C91.8594 67.7617 91.6133 68.0586 91.3164 68.332C91.0273 68.5977 90.6719 68.8164 90.25 68.9883C89.8281 69.1523 89.3164 69.2344 88.7148 69.2344C87.9336 69.2344 87.2148 69.0742 86.5586 68.7539C85.9102 68.4336 85.3906 67.9883 85 67.418C84.6094 66.8398 84.4141 66.1758 84.4141 65.4258C84.4141 64.7695 84.5312 64.1836 84.7656 63.668C85.0078 63.1523 85.3711 62.7148 85.8555 62.3555C86.3398 61.9961 86.957 61.7227 87.707 61.5352C88.457 61.3477 89.3398 61.2539 90.3555 61.2539H92.0547ZM101.617 59.0273V69H97.668V56.3203H101.371L101.617 59.0273ZM101.148 62.2266L100.223 62.25C100.223 61.2812 100.34 60.418 100.574 59.6602C100.809 58.8945 101.141 58.2461 101.57 57.7148C102 57.1836 102.512 56.7812 103.105 56.5078C103.707 56.2266 104.375 56.0859 105.109 56.0859C105.695 56.0859 106.23 56.1719 106.715 56.3438C107.207 56.5156 107.629 56.793 107.98 57.1758C108.34 57.5586 108.613 58.0664 108.801 58.6992C108.996 59.3242 109.094 60.0977 109.094 61.0195V69H105.121V61.0078C105.121 60.5 105.051 60.1133 104.91 59.8477C104.77 59.5742 104.566 59.3867 104.301 59.2852C104.035 59.1836 103.711 59.1328 103.328 59.1328C102.922 59.1328 102.578 59.2109 102.297 59.3672C102.016 59.5234 101.789 59.7422 101.617 60.0234C101.453 60.2969 101.332 60.6211 101.254 60.9961C101.184 61.3711 101.148 61.7812 101.148 62.2266ZM118.574 66.0938V51H122.547V69H118.984L118.574 66.0938ZM110.793 62.8125V62.5664C110.793 61.6055 110.898 60.7305 111.109 59.9414C111.32 59.1445 111.633 58.4609 112.047 57.8906C112.461 57.3125 112.977 56.8672 113.594 56.5547C114.211 56.2422 114.922 56.0859 115.727 56.0859C116.445 56.0859 117.074 56.2539 117.613 56.5898C118.152 56.918 118.613 57.3789 118.996 57.9727C119.379 58.5664 119.691 59.2617 119.934 60.0586C120.176 60.8477 120.359 61.6992 120.484 62.6133V62.9062C120.359 63.7656 120.176 64.5781 119.934 65.3438C119.691 66.1016 119.379 66.7734 118.996 67.3594C118.613 67.9453 118.148 68.4062 117.602 68.7422C117.062 69.0703 116.43 69.2344 115.703 69.2344C114.898 69.2344 114.188 69.0742 113.57 68.7539C112.961 68.4336 112.449 67.9844 112.035 67.4062C111.629 66.8281 111.32 66.1484 111.109 65.3672C110.898 64.5859 110.793 63.7344 110.793 62.8125ZM114.742 62.5664V62.8125C114.742 63.2891 114.773 63.7305 114.836 64.1367C114.898 64.543 115.004 64.9023 115.152 65.2148C115.309 65.5195 115.512 65.7578 115.762 65.9297C116.02 66.1016 116.336 66.1875 116.711 66.1875C117.219 66.1875 117.637 66.0664 117.965 65.8242C118.301 65.582 118.547 65.2383 118.703 64.793C118.867 64.3477 118.938 63.8242 118.914 63.2227V62.2969C118.93 61.7812 118.895 61.3281 118.809 60.9375C118.723 60.5391 118.586 60.207 118.398 59.9414C118.219 59.6758 117.988 59.4766 117.707 59.3438C117.434 59.2031 117.109 59.1328 116.734 59.1328C116.367 59.1328 116.055 59.2188 115.797 59.3906C115.547 59.5625 115.344 59.8047 115.188 60.1172C115.031 60.4219 114.918 60.7852 114.848 61.207C114.777 61.6211 114.742 62.0742 114.742 62.5664ZM124.293 62.7891V62.543C124.293 61.6133 124.426 60.7578 124.691 59.9766C124.957 59.1875 125.348 58.5039 125.863 57.9258C126.379 57.3477 127.016 56.8984 127.773 56.5781C128.531 56.25 129.406 56.0859 130.398 56.0859C131.398 56.0859 132.277 56.25 133.035 56.5781C133.801 56.8984 134.441 57.3477 134.957 57.9258C135.473 58.5039 135.863 59.1875 136.129 59.9766C136.395 60.7578 136.527 61.6133 136.527 62.543V62.7891C136.527 63.7109 136.395 64.5664 136.129 65.3555C135.863 66.1367 135.473 66.8203 134.957 67.4062C134.441 67.9844 133.805 68.4336 133.047 68.7539C132.289 69.0742 131.414 69.2344 130.422 69.2344C129.43 69.2344 128.551 69.0742 127.785 68.7539C127.02 68.4336 126.379 67.9844 125.863 67.4062C125.348 66.8203 124.957 66.1367 124.691 65.3555C124.426 64.5664 124.293 63.7109 124.293 62.7891ZM128.242 62.543V62.7891C128.242 63.2656 128.277 63.7109 128.348 64.125C128.418 64.5391 128.535 64.9023 128.699 65.2148C128.863 65.5195 129.086 65.7578 129.367 65.9297C129.648 66.1016 130 66.1875 130.422 66.1875C130.836 66.1875 131.18 66.1016 131.453 65.9297C131.734 65.7578 131.957 65.5195 132.121 65.2148C132.285 64.9023 132.402 64.5391 132.473 64.125C132.543 63.7109 132.578 63.2656 132.578 62.7891V62.543C132.578 62.082 132.543 61.6484 132.473 61.2422C132.402 60.8281 132.285 60.4648 132.121 60.1523C131.957 59.832 131.734 59.582 131.453 59.4023C131.172 59.2227 130.82 59.1328 130.398 59.1328C129.984 59.1328 129.637 59.2227 129.355 59.4023C129.082 59.582 128.863 59.832 128.699 60.1523C128.535 60.4648 128.418 60.8281 128.348 61.2422C128.277 61.6484 128.242 62.082 128.242 62.543ZM143.77 62.7891V62.543C143.77 61.6133 143.902 60.7578 144.168 59.9766C144.434 59.1875 144.824 58.5039 145.34 57.9258C145.855 57.3477 146.492 56.8984 147.25 56.5781C148.008 56.25 148.883 56.0859 149.875 56.0859C150.875 56.0859 151.754 56.25 152.512 56.5781C153.277 56.8984 153.918 57.3477 154.434 57.9258C154.949 58.5039 155.34 59.1875 155.605 59.9766C155.871 60.7578 156.004 61.6133 156.004 62.543V62.7891C156.004 63.7109 155.871 64.5664 155.605 65.3555C155.34 66.1367 154.949 66.8203 154.434 67.4062C153.918 67.9844 153.281 68.4336 152.523 68.7539C151.766 69.0742 150.891 69.2344 149.898 69.2344C148.906 69.2344 148.027 69.0742 147.262 68.7539C146.496 68.4336 145.855 67.9844 145.34 67.4062C144.824 66.8203 144.434 66.1367 144.168 65.3555C143.902 64.5664 143.77 63.7109 143.77 62.7891ZM147.719 62.543V62.7891C147.719 63.2656 147.754 63.7109 147.824 64.125C147.895 64.5391 148.012 64.9023 148.176 65.2148C148.34 65.5195 148.562 65.7578 148.844 65.9297C149.125 66.1016 149.477 66.1875 149.898 66.1875C150.312 66.1875 150.656 66.1016 150.93 65.9297C151.211 65.7578 151.434 65.5195 151.598 65.2148C151.762 64.9023 151.879 64.5391 151.949 64.125C152.02 63.7109 152.055 63.2656 152.055 62.7891V62.543C152.055 62.082 152.02 61.6484 151.949 61.2422C151.879 60.8281 151.762 60.4648 151.598 60.1523C151.434 59.832 151.211 59.582 150.93 59.4023C150.648 59.2227 150.297 59.1328 149.875 59.1328C149.461 59.1328 149.113 59.2227 148.832 59.4023C148.559 59.582 148.34 59.832 148.176 60.1523C148.012 60.4648 147.895 60.8281 147.824 61.2422C147.754 61.6484 147.719 62.082 147.719 62.543ZM170.383 65.4375C170.383 65.2188 170.309 65.0312 170.16 64.875C170.02 64.7109 169.77 64.5625 169.41 64.4297C169.051 64.2891 168.547 64.1484 167.898 64.0078C167.281 63.875 166.699 63.6992 166.152 63.4805C165.613 63.2617 165.141 62.9961 164.734 62.6836C164.328 62.3711 164.008 62 163.773 61.5703C163.547 61.1406 163.434 60.6484 163.434 60.0938C163.434 59.5547 163.547 59.0469 163.773 58.5703C164.008 58.0859 164.348 57.6602 164.793 57.293C165.246 56.918 165.797 56.625 166.445 56.4141C167.094 56.1953 167.832 56.0859 168.66 56.0859C169.801 56.0859 170.785 56.2617 171.613 56.6133C172.441 56.957 173.078 57.4414 173.523 58.0664C173.977 58.6836 174.203 59.3984 174.203 60.2109H170.254C170.254 59.8906 170.199 59.6172 170.09 59.3906C169.988 59.1641 169.82 58.9922 169.586 58.875C169.352 58.75 169.039 58.6875 168.648 58.6875C168.375 58.6875 168.125 58.7383 167.898 58.8398C167.68 58.9414 167.504 59.082 167.371 59.2617C167.238 59.4414 167.172 59.6523 167.172 59.8945C167.172 60.0664 167.211 60.2227 167.289 60.3633C167.375 60.4961 167.504 60.6211 167.676 60.7383C167.848 60.8477 168.066 60.9492 168.332 61.043C168.598 61.1289 168.918 61.207 169.293 61.2773C170.145 61.4336 170.941 61.6562 171.684 61.9453C172.426 62.2344 173.027 62.6445 173.488 63.1758C173.957 63.707 174.191 64.4219 174.191 65.3203C174.191 65.8828 174.062 66.4023 173.805 66.8789C173.547 67.3477 173.176 67.7617 172.691 68.1211C172.207 68.4727 171.625 68.7461 170.945 68.9414C170.266 69.1367 169.5 69.2344 168.648 69.2344C167.438 69.2344 166.414 69.0195 165.578 68.5898C164.742 68.1523 164.109 67.6055 163.68 66.9492C163.258 66.2852 163.047 65.6133 163.047 64.9336H166.727C166.742 65.3242 166.836 65.6445 167.008 65.8945C167.188 66.1445 167.426 66.3281 167.723 66.4453C168.02 66.5625 168.363 66.6211 168.754 66.6211C169.113 66.6211 169.41 66.5703 169.645 66.4688C169.887 66.3672 170.07 66.2305 170.195 66.0586C170.32 65.8789 170.383 65.6719 170.383 65.4375ZM182.184 69.2344C181.152 69.2344 180.23 69.0742 179.418 68.7539C178.605 68.4258 177.918 67.9766 177.355 67.4062C176.801 66.8359 176.375 66.1797 176.078 65.4375C175.789 64.6953 175.645 63.9102 175.645 63.082V62.6367C175.645 61.707 175.773 60.8477 176.031 60.0586C176.289 59.2617 176.672 58.5664 177.18 57.9727C177.688 57.3789 178.324 56.918 179.09 56.5898C179.855 56.2539 180.746 56.0859 181.762 56.0859C182.66 56.0859 183.465 56.2305 184.176 56.5195C184.887 56.8086 185.488 57.2227 185.98 57.7617C186.48 58.3008 186.859 58.9531 187.117 59.7188C187.383 60.4844 187.516 61.3438 187.516 62.2969V63.9023H177.156V61.4297H183.66V61.125C183.668 60.7031 183.594 60.3438 183.438 60.0469C183.289 59.75 183.07 59.5234 182.781 59.3672C182.492 59.2109 182.141 59.1328 181.727 59.1328C181.297 59.1328 180.941 59.2266 180.66 59.4141C180.387 59.6016 180.172 59.8594 180.016 60.1875C179.867 60.5078 179.762 60.8789 179.699 61.3008C179.637 61.7227 179.605 62.168 179.605 62.6367V63.082C179.605 63.5508 179.668 63.9766 179.793 64.3594C179.926 64.7422 180.113 65.0703 180.355 65.3438C180.605 65.6094 180.902 65.8164 181.246 65.9648C181.598 66.1133 181.996 66.1875 182.441 66.1875C182.98 66.1875 183.512 66.0859 184.035 65.8828C184.559 65.6797 185.008 65.3438 185.383 64.875L187.176 67.0078C186.918 67.375 186.551 67.7305 186.074 68.0742C185.605 68.418 185.043 68.6992 184.387 68.918C183.73 69.1289 182.996 69.2344 182.184 69.2344ZM196.527 65.918V56.3203H200.488V69H196.785L196.527 65.918ZM196.902 63.3398L197.934 63.3164C197.934 64.168 197.832 64.957 197.629 65.6836C197.426 66.4023 197.125 67.0273 196.727 67.5586C196.336 68.0898 195.852 68.5039 195.273 68.8008C194.703 69.0898 194.043 69.2344 193.293 69.2344C192.668 69.2344 192.094 69.1484 191.57 68.9766C191.055 68.7969 190.609 68.5195 190.234 68.1445C189.859 67.7617 189.566 67.2734 189.355 66.6797C189.152 66.0781 189.051 65.3594 189.051 64.5234V56.3203H193V64.5469C193 64.8281 193.035 65.0703 193.105 65.2734C193.176 65.4766 193.277 65.6484 193.41 65.7891C193.543 65.9219 193.707 66.0234 193.902 66.0938C194.105 66.1562 194.336 66.1875 194.594 66.1875C195.188 66.1875 195.652 66.0625 195.988 65.8125C196.324 65.5625 196.559 65.2227 196.691 64.793C196.832 64.3633 196.902 63.8789 196.902 63.3398ZM215.23 65.8125V60.5859C215.23 60.2266 215.18 59.918 215.078 59.6602C214.977 59.4023 214.816 59.2031 214.598 59.0625C214.379 58.9141 214.086 58.8398 213.719 58.8398C213.422 58.8398 213.168 58.8906 212.957 58.9922C212.746 59.0938 212.586 59.2461 212.477 59.4492C212.367 59.6523 212.312 59.9102 212.312 60.2227H208.363C208.363 59.6367 208.492 59.0938 208.75 58.5938C209.016 58.0859 209.391 57.6445 209.875 57.2695C210.367 56.8945 210.953 56.6055 211.633 56.4023C212.32 56.1914 213.086 56.0859 213.93 56.0859C214.938 56.0859 215.836 56.2539 216.625 56.5898C217.422 56.9258 218.051 57.4297 218.512 58.1016C218.973 58.7656 219.203 59.6016 219.203 60.6094V65.8008C219.203 66.6289 219.25 67.2578 219.344 67.6875C219.438 68.1094 219.57 68.4805 219.742 68.8008V69H215.781C215.594 68.6094 215.453 68.1328 215.359 67.5703C215.273 67 215.23 66.4141 215.23 65.8125ZM215.711 61.2539L215.734 63.3633H213.988C213.621 63.3633 213.309 63.4141 213.051 63.5156C212.801 63.6172 212.598 63.7578 212.441 63.9375C212.293 64.1094 212.184 64.3047 212.113 64.5234C212.051 64.7422 212.02 64.9727 212.02 65.2148C212.02 65.4492 212.074 65.6602 212.184 65.8477C212.301 66.0273 212.457 66.168 212.652 66.2695C212.848 66.3711 213.066 66.4219 213.309 66.4219C213.746 66.4219 214.117 66.3398 214.422 66.1758C214.734 66.0039 214.973 65.7969 215.137 65.5547C215.301 65.3125 215.383 65.0859 215.383 64.875L216.25 66.4922C216.094 66.8047 215.914 67.1211 215.711 67.4414C215.516 67.7617 215.27 68.0586 214.973 68.332C214.684 68.5977 214.328 68.8164 213.906 68.9883C213.484 69.1523 212.973 69.2344 212.371 69.2344C211.59 69.2344 210.871 69.0742 210.215 68.7539C209.566 68.4336 209.047 67.9883 208.656 67.418C208.266 66.8398 208.07 66.1758 208.07 65.4258C208.07 64.7695 208.188 64.1836 208.422 63.668C208.664 63.1523 209.027 62.7148 209.512 62.3555C209.996 61.9961 210.613 61.7227 211.363 61.5352C212.113 61.3477 212.996 61.2539 214.012 61.2539H215.711ZM225.379 59.4609V69H221.43V56.3203H225.121L225.379 59.4609ZM229.129 56.2266L229.059 59.8945C228.902 59.8789 228.691 59.8594 228.426 59.8359C228.16 59.8125 227.938 59.8008 227.758 59.8008C227.297 59.8008 226.898 59.8555 226.562 59.9648C226.234 60.0664 225.961 60.2227 225.742 60.4336C225.531 60.6367 225.375 60.8945 225.273 61.207C225.18 61.5195 225.137 61.8828 225.145 62.2969L224.43 61.8281C224.43 60.9766 224.512 60.2031 224.676 59.5078C224.848 58.8047 225.09 58.1992 225.402 57.6914C225.715 57.1758 226.094 56.7812 226.539 56.5078C226.984 56.2266 227.484 56.0859 228.039 56.0859C228.234 56.0859 228.426 56.0977 228.613 56.1211C228.809 56.1445 228.98 56.1797 229.129 56.2266ZM237.133 65.4375C237.133 65.2188 237.059 65.0312 236.91 64.875C236.77 64.7109 236.52 64.5625 236.16 64.4297C235.801 64.2891 235.297 64.1484 234.648 64.0078C234.031 63.875 233.449 63.6992 232.902 63.4805C232.363 63.2617 231.891 62.9961 231.484 62.6836C231.078 62.3711 230.758 62 230.523 61.5703C230.297 61.1406 230.184 60.6484 230.184 60.0938C230.184 59.5547 230.297 59.0469 230.523 58.5703C230.758 58.0859 231.098 57.6602 231.543 57.293C231.996 56.918 232.547 56.625 233.195 56.4141C233.844 56.1953 234.582 56.0859 235.41 56.0859C236.551 56.0859 237.535 56.2617 238.363 56.6133C239.191 56.957 239.828 57.4414 240.273 58.0664C240.727 58.6836 240.953 59.3984 240.953 60.2109H237.004C237.004 59.8906 236.949 59.6172 236.84 59.3906C236.738 59.1641 236.57 58.9922 236.336 58.875C236.102 58.75 235.789 58.6875 235.398 58.6875C235.125 58.6875 234.875 58.7383 234.648 58.8398C234.43 58.9414 234.254 59.082 234.121 59.2617C233.988 59.4414 233.922 59.6523 233.922 59.8945C233.922 60.0664 233.961 60.2227 234.039 60.3633C234.125 60.4961 234.254 60.6211 234.426 60.7383C234.598 60.8477 234.816 60.9492 235.082 61.043C235.348 61.1289 235.668 61.207 236.043 61.2773C236.895 61.4336 237.691 61.6562 238.434 61.9453C239.176 62.2344 239.777 62.6445 240.238 63.1758C240.707 63.707 240.941 64.4219 240.941 65.3203C240.941 65.8828 240.812 66.4023 240.555 66.8789C240.297 67.3477 239.926 67.7617 239.441 68.1211C238.957 68.4727 238.375 68.7461 237.695 68.9414C237.016 69.1367 236.25 69.2344 235.398 69.2344C234.188 69.2344 233.164 69.0195 232.328 68.5898C231.492 68.1523 230.859 67.6055 230.43 66.9492C230.008 66.2852 229.797 65.6133 229.797 64.9336H233.477C233.492 65.3242 233.586 65.6445 233.758 65.8945C233.938 66.1445 234.176 66.3281 234.473 66.4453C234.77 66.5625 235.113 66.6211 235.504 66.6211C235.863 66.6211 236.16 66.5703 236.395 66.4688C236.637 66.3672 236.82 66.2305 236.945 66.0586C237.07 65.8789 237.133 65.6719 237.133 65.4375ZM248.934 69.2344C247.902 69.2344 246.98 69.0742 246.168 68.7539C245.355 68.4258 244.668 67.9766 244.105 67.4062C243.551 66.8359 243.125 66.1797 242.828 65.4375C242.539 64.6953 242.395 63.9102 242.395 63.082V62.6367C242.395 61.707 242.523 60.8477 242.781 60.0586C243.039 59.2617 243.422 58.5664 243.93 57.9727C244.438 57.3789 245.074 56.918 245.84 56.5898C246.605 56.2539 247.496 56.0859 248.512 56.0859C249.41 56.0859 250.215 56.2305 250.926 56.5195C251.637 56.8086 252.238 57.2227 252.73 57.7617C253.23 58.3008 253.609 58.9531 253.867 59.7188C254.133 60.4844 254.266 61.3438 254.266 62.2969V63.9023H243.906V61.4297H250.41V61.125C250.418 60.7031 250.344 60.3438 250.188 60.0469C250.039 59.75 249.82 59.5234 249.531 59.3672C249.242 59.2109 248.891 59.1328 248.477 59.1328C248.047 59.1328 247.691 59.2266 247.41 59.4141C247.137 59.6016 246.922 59.8594 246.766 60.1875C246.617 60.5078 246.512 60.8789 246.449 61.3008C246.387 61.7227 246.355 62.168 246.355 62.6367V63.082C246.355 63.5508 246.418 63.9766 246.543 64.3594C246.676 64.7422 246.863 65.0703 247.105 65.3438C247.355 65.6094 247.652 65.8164 247.996 65.9648C248.348 66.1133 248.746 66.1875 249.191 66.1875C249.73 66.1875 250.262 66.0859 250.785 65.8828C251.309 65.6797 251.758 65.3438 252.133 64.875L253.926 67.0078C253.668 67.375 253.301 67.7305 252.824 68.0742C252.355 68.418 251.793 68.6992 251.137 68.918C250.48 69.1289 249.746 69.2344 248.934 69.2344ZM259.75 59.0273V69H255.801V56.3203H259.504L259.75 59.0273ZM259.281 62.2266L258.355 62.25C258.355 61.2812 258.473 60.418 258.707 59.6602C258.941 58.8945 259.273 58.2461 259.703 57.7148C260.133 57.1836 260.645 56.7812 261.238 56.5078C261.84 56.2266 262.508 56.0859 263.242 56.0859C263.828 56.0859 264.363 56.1719 264.848 56.3438C265.34 56.5156 265.762 56.793 266.113 57.1758C266.473 57.5586 266.746 58.0664 266.934 58.6992C267.129 59.3242 267.227 60.0977 267.227 61.0195V69H263.254V61.0078C263.254 60.5 263.184 60.1133 263.043 59.8477C262.902 59.5742 262.699 59.3867 262.434 59.2852C262.168 59.1836 261.844 59.1328 261.461 59.1328C261.055 59.1328 260.711 59.2109 260.43 59.3672C260.148 59.5234 259.922 59.7422 259.75 60.0234C259.586 60.2969 259.465 60.6211 259.387 60.9961C259.316 61.3711 259.281 61.7812 259.281 62.2266ZM276.004 65.8125V60.5859C276.004 60.2266 275.953 59.918 275.852 59.6602C275.75 59.4023 275.59 59.2031 275.371 59.0625C275.152 58.9141 274.859 58.8398 274.492 58.8398C274.195 58.8398 273.941 58.8906 273.73 58.9922C273.52 59.0938 273.359 59.2461 273.25 59.4492C273.141 59.6523 273.086 59.9102 273.086 60.2227H269.137C269.137 59.6367 269.266 59.0938 269.523 58.5938C269.789 58.0859 270.164 57.6445 270.648 57.2695C271.141 56.8945 271.727 56.6055 272.406 56.4023C273.094 56.1914 273.859 56.0859 274.703 56.0859C275.711 56.0859 276.609 56.2539 277.398 56.5898C278.195 56.9258 278.824 57.4297 279.285 58.1016C279.746 58.7656 279.977 59.6016 279.977 60.6094V65.8008C279.977 66.6289 280.023 67.2578 280.117 67.6875C280.211 68.1094 280.344 68.4805 280.516 68.8008V69H276.555C276.367 68.6094 276.227 68.1328 276.133 67.5703C276.047 67 276.004 66.4141 276.004 65.8125ZM276.484 61.2539L276.508 63.3633H274.762C274.395 63.3633 274.082 63.4141 273.824 63.5156C273.574 63.6172 273.371 63.7578 273.215 63.9375C273.066 64.1094 272.957 64.3047 272.887 64.5234C272.824 64.7422 272.793 64.9727 272.793 65.2148C272.793 65.4492 272.848 65.6602 272.957 65.8477C273.074 66.0273 273.23 66.168 273.426 66.2695C273.621 66.3711 273.84 66.4219 274.082 66.4219C274.52 66.4219 274.891 66.3398 275.195 66.1758C275.508 66.0039 275.746 65.7969 275.91 65.5547C276.074 65.3125 276.156 65.0859 276.156 64.875L277.023 66.4922C276.867 66.8047 276.688 67.1211 276.484 67.4414C276.289 67.7617 276.043 68.0586 275.746 68.332C275.457 68.5977 275.102 68.8164 274.68 68.9883C274.258 69.1523 273.746 69.2344 273.145 69.2344C272.363 69.2344 271.645 69.0742 270.988 68.7539C270.34 68.4336 269.82 67.9883 269.43 67.418C269.039 66.8398 268.844 66.1758 268.844 65.4258C268.844 64.7695 268.961 64.1836 269.195 63.668C269.438 63.1523 269.801 62.7148 270.285 62.3555C270.77 61.9961 271.387 61.7227 272.137 61.5352C272.887 61.3477 273.77 61.2539 274.785 61.2539H276.484ZM286.34 51V69H282.379V51H286.34Z" fill="white"/>
</g>
<defs>
<filter id="filter0_i_2_52" x="0.15625" y="0.609375" width="286.184" height="77.3828" filterUnits="userSpaceOnUse" color-interpolation-filters="sRGB">
<feFlood flood-opacity="0" result="BackgroundImageFix"/>
<feBlend mode="normal" in="SourceGraphic" in2="BackgroundImageFix" result="shape"/>
<feColorMatrix in="SourceAlpha" type="matrix" values="0 0 0 0 0 0 0 0 0 0 0 0 0 0 0 0 0 0 127 0" result="hardAlpha"/>
<feOffset dy="4"/>
<feGaussianBlur stdDeviation="2"/>
<feComposite in2="hardAlpha" operator="arithmetic" k2="-1" k3="1"/>
<feColorMatrix type="matrix" values="0 0 0 0 0 0 0 0 0 0 0 0 0 0 0 0 0 0 0.25 0"/>
<feBlend mode="normal" in2="shape" result="effect1_innerShadow_2_52"/>
</filter>
</defs>
</svg>
